<?xml version="1.0" standalone="no"?>
<!DOCTYPE svg PUBLIC "-//W3C//DTD SVG 20010904//EN"
 "http://www.w3.org/TR/2001/REC-SVG-20010904/DTD/svg10.dtd">
<svg version="1.0" xmlns="http://www.w3.org/2000/svg"
 width="200.000000pt" height="200.000000pt" viewBox="0 0 200.000000 200.000000"
 preserveAspectRatio="xMidYMid meet">

<g transform="translate(0.000000,200.000000) scale(0.100000,-0.100000)"
fill="#C00000" stroke="none">
<path d="M215 1871 c-48 -22 -69 -44 -90 -94 -13 -32 -15 -133 -15 -779 0
-700 2 -745 19 -783 22 -48 44 -69 94 -90 32 -13 133 -15 779 -15 700 0 745 2
783 19 48 22 69 44 90 94 13 32 15 133 15 777 0 644 -2 745 -15 777 -21 50
-42 72 -90 94 -38 17 -83 19 -785 19 -702 0 -747 -2 -785 -19z m1561 -95 l34
-34 0 -742 0 -742 -34 -34 -34 -34 -742 0 -742 0 -34 34 -34 34 0 742 0 742
34 34 34 34 742 0 742 0 34 -34z"/>
<path d="M400 1675 l0 -35 -90 0 c-49 0 -90 -2 -90 -6 0 -3 10 -23 22 -44 23
-38 24 -39 87 -42 l64 -3 -76 -75 c-79 -76 -86 -92 -63 -122 24 -32 51 -20
130 60 l77 77 22 -26 c12 -14 39 -47 60 -73 21 -25 46 -46 55 -46 25 0 62 28
62 46 0 9 -29 48 -65 87 l-66 72 68 3 c74 3 93 13 93 47 0 36 -23 46 -104 47
-67 1 -75 3 -78 21 -2 14 -16 24 -48 33 -61 18 -60 19 -60 -21z"/>
<path d="M812 1615 l3 -85 -61 0 c-33 0 -63 -2 -66 -5 -3 -3 -1 -24 4 -45 l10
-40 53 0 c63 0 65 -4 65 -123 0 -71 2 -78 23 -86 14 -6 33 -3 55 7 l32 16 -2
195 -3 196 -50 27 c-27 15 -54 28 -58 28 -5 0 -7 -38 -5 -85z"/>
<path d="M1203 1639 c3 -12 4 -34 1 -48 l-5 -26 -96 3 -95 3 7 -23 c22 -69 21
-68 82 -69 350 -7 394 -5 405 14 26 49 -20 85 -92 71 -16 -4 -45 -3 -64 0 -30
6 -35 11 -38 38 -3 27 -8 33 -48 44 -60 18 -63 18 -57 -7z"/>
<path d="M1558 1488 c-5 -348 -5 -341 16 -366 21 -24 47 -22 79 6 14 13 17 33
17 119 l0 103 53 0 c59 0 77 12 77 50 0 38 -18 50 -77 50 l-52 0 -3 70 -3 71
-52 29 -53 30 -2 -162z"/>
<path d="M1230 1430 c-86 -18 -125 -53 -138 -121 -11 -56 2 -107 35 -137 36
-33 65 -42 139 -42 103 0 148 35 160 124 8 58 0 87 -33 120 -49 50 -104 68
-163 56z m90 -122 c13 -25 13 -31 0 -55 -34 -60 -141 -29 -125 35 8 37 34 53
75 50 25 -2 38 -10 50 -30z"/>
<path d="M270 1166 l0 -134 38 9 c44 10 354 10 497 0 81 -6 103 -5 118 7 21
19 22 41 2 69 -24 35 -78 44 -191 34 -54 -6 -155 -11 -224 -12 l-125 -2 -1 68
-1 69 -54 13 c-30 6 -55 12 -56 13 -2 0 -3 -60 -3 -134z"/>
<path d="M664 933 c0 -15 -1 -61 -2 -100 l-2 -73 -46 0 -46 0 6 -31 c3 -17 6
-38 6 -45 0 -10 13 -14 40 -14 38 0 40 -1 41 -32 4 -166 7 -182 29 -200 19
-16 51 -17 68 -3 1 1 4 113 6 248 2 180 0 249 -8 256 -7 6 -30 13 -52 16 -38
7 -39 6 -40 -22z"/>
<path d="M816 927 c2 -18 5 -130 8 -250 3 -191 6 -220 21 -237 22 -25 47 -25
73 -3 20 18 21 25 15 250 l-6 232 -58 20 -57 19 4 -31z"/>
<path d="M1624 818 c3 -79 5 -155 6 -169 0 -35 38 -46 80 -24 l31 16 -3 132
-3 132 -50 27 c-27 15 -54 28 -58 28 -5 0 -6 -64 -3 -142z"/>
<path d="M1196 929 c-51 -8 -84 -32 -118 -86 -16 -27 -19 -42 -13 -84 14 -102
102 -159 221 -145 91 11 132 40 158 113 27 77 -7 143 -96 189 -49 25 -71 27
-152 13z m130 -120 c20 -16 17 -53 -5 -80 -24 -29 -91 -31 -121 -4 -38 35 -18
96 35 107 24 5 72 -7 91 -23z"/>
<path d="M210 923 c0 -1 12 -23 28 -48 l27 -47 48 6 c26 3 47 1 47 -3 0 -11
-22 -64 -81 -193 -66 -145 -63 -198 8 -172 20 7 36 35 81 142 30 73 58 129 62
125 4 -4 28 -62 55 -128 56 -142 64 -153 100 -137 14 7 28 18 31 26 7 17 -64
207 -102 275 -13 24 -24 49 -24 55 0 7 23 11 62 11 59 0 63 1 72 28 8 21 6 31
-7 44 -14 15 -43 17 -212 17 -107 1 -195 0 -195 -1z"/>
<path d="M1080 571 c0 -5 5 -22 10 -37 l11 -27 264 6 265 7 0 -25 0 -25 -275
0 -275 0 -2 -35 c0 -19 -2 -61 -2 -92 l-1 -58 333 -3 333 -2 -3 37 -3 38 -210
1 c-343 2 -345 2 -345 18 0 22 54 26 300 23 124 -2 233 -1 243 1 15 4 17 17
17 93 l0 89 -330 0 c-198 0 -330 -4 -330 -9z"/>
</g>
</svg>
